<?xml version="1.0" encoding="UTF-8" standalone="no"?><!DOCTYPE svg PUBLIC "-//W3C//DTD SVG 1.1//EN" "http://www.w3.org/Graphics/SVG/1.1/DTD/svg11.dtd"><svg width="100%" height="100%" viewBox="0 0 968 713" version="1.1" xmlns="http://www.w3.org/2000/svg" xmlns:xlink="http://www.w3.org/1999/xlink" xml:space="preserve"  style="fill-rule:evenodd;clip-rule:evenodd;stroke-linejoin:round;stroke-miterlimit:2;"><g><path d="M40.292,342.794c-11.165,0 -18.96,-4.003 -23.384,-12.009c-7.584,-13.904 0.211,-39.921 23.384,-78.053c12.219,-19.592 23.806,-36.235 34.761,-49.928c1.475,-1.896 3.423,-3.002 5.846,-3.318c2.423,-0.316 4.582,0.263 6.478,1.738c1.896,1.474 3.002,3.423 3.318,5.846c0.316,2.422 -0.263,4.582 -1.738,6.478c0,0.21 -1.633,2.475 -4.898,6.794c-3.265,4.319 -7.689,10.533 -13.272,18.644c-5.583,8.111 -10.586,15.853 -15.01,23.226c-5.478,8.638 -9.955,16.538 -13.431,23.701c-3.476,7.163 -5.898,12.798 -7.268,16.906c-1.369,4.108 -2.317,7.689 -2.844,10.744c-0.526,3.055 -0.684,5.162 -0.474,6.32c0.211,1.159 0.527,2.054 0.948,2.686c1.054,1.896 4.53,2.634 10.428,2.212c17.065,-1.264 34.024,-10.217 50.877,-26.86c16.854,-16.643 32.549,-39.817 47.085,-69.521c8.216,-17.064 15.537,-35.182 21.962,-54.353c6.425,-19.171 11.429,-38.026 15.01,-56.565c3.582,-18.538 5.372,-35.392 5.372,-50.56c0.211,-14.747 -1.158,-26.492 -4.108,-35.235c-2.949,-8.743 -7.162,-13.43 -12.64,-14.062c-5.688,-0.421 -11.534,0.843 -17.538,3.792c-6.004,2.949 -12.114,7.9 -18.328,14.852c-6.215,6.952 -12.061,14.115 -17.539,21.489c-5.477,7.373 -11.376,16.906 -17.696,28.598c-6.32,11.692 -11.692,21.857 -16.116,30.494c-4.424,8.638 -9.586,19.698 -15.484,33.181c-5.899,13.483 -10.376,23.753 -13.431,30.81c-3.054,7.058 -7.004,16.591 -11.85,28.599c-9.901,24.227 -17.064,40.554 -21.488,48.98c-1.896,3.792 -4.898,5.372 -9.006,4.74c-4.108,-0.632 -6.584,-2.949 -7.426,-6.952c-4.424,-21.699 9.691,-91.957 42.344,-210.775c0.843,-3.581 2.897,-5.635 6.162,-6.162c3.266,-0.526 6.163,0.316 8.691,2.528c2.528,2.212 3.265,5.109 2.212,8.691c-16.433,57.934 -28.441,107.125 -36.025,147.574c23.806,-57.513 43.609,-99.752 59.409,-126.718c29.704,-50.35 58.039,-74.051 85.005,-71.101c6.952,0.632 12.798,3.318 17.538,8.058c4.74,4.74 8.111,10.744 10.113,18.012c2.001,7.268 3.37,14.115 4.108,20.54c0.737,6.426 1.106,13.115 1.106,20.067c-0.422,24.437 -4.688,52.035 -12.799,82.793c-8.11,30.758 -18.697,59.514 -31.758,86.269c-3.581,7.163 -7.321,14.115 -11.218,20.856c-3.898,6.742 -8.585,14.221 -14.062,22.437c-5.478,8.216 -11.377,15.747 -17.697,22.594c-6.32,6.847 -13.061,13.272 -20.224,19.276c-7.163,6.004 -15.01,10.902 -23.542,14.694c-8.532,3.793 -17.117,6.005 -25.755,6.637c-0.842,0.21 -2.212,0.316 -4.108,0.316Z" style="fill-rule:nonzero;"/><path d="M206.195,263.792c-3.16,-1.896 -5.741,-4.213 -7.742,-6.952c-2.002,-2.738 -3.424,-5.477 -4.267,-8.216c-0.842,-2.738 -1.211,-6.267 -1.106,-10.586c0.106,-4.319 0.316,-8.111 0.632,-11.376c0.316,-3.265 0.896,-7.637 1.739,-13.114c3.792,-18.539 8.9,-33.444 15.326,-44.715c6.425,-11.271 13.641,-17.959 21.646,-20.066c6.741,-1.896 12.324,-0.211 16.748,5.056c4.846,5.477 6.004,13.167 3.476,23.068c-1.896,8.216 -6.267,16.432 -13.114,24.649c-6.847,8.216 -15.958,14.957 -27.334,20.224c-2.528,14.957 -1.264,24.016 3.792,27.176c2.106,1.475 5.267,1.791 9.48,0.948c4.213,-0.842 8.321,-2.633 12.324,-5.372c12.43,-8.637 23.49,-25.175 33.181,-49.612c0.842,-1.897 2.106,-3.319 3.792,-4.267c1.685,-0.948 3.37,-1.264 5.056,-0.948c1.685,0.316 3.318,0.948 4.898,1.896c1.58,0.948 2.58,2.318 3.002,4.109c0.421,1.79 0.316,3.739 -0.316,5.846c-11.166,27.808 -24.333,46.979 -39.501,57.512c-8.848,6.11 -17.696,9.165 -26.544,9.165c-5.478,0 -10.534,-1.475 -15.168,-4.425Zm29.704,-97.645c-1.475,0.632 -3.055,2.001 -4.74,4.108c-1.685,2.107 -3.792,5.53 -6.32,10.27c-2.528,4.74 -4.74,10.376 -6.636,16.907c8.637,-6.953 14.22,-14.537 16.748,-22.753c1.053,-3.16 1.369,-6.004 0.948,-8.532Z" style="fill-rule:nonzero;"/><path d="M559.804,190.479c2.317,-1.053 4.582,-1.158 6.794,-0.316c2.212,0.843 3.792,2.37 4.74,4.583c0.948,2.212 1.106,4.476 0.474,6.794c-5.478,13.693 -15.063,30.968 -28.757,51.824c-6.109,9.27 -11.534,16.854 -16.274,22.753c-4.74,5.898 -8.637,9.901 -11.692,12.008c-3.055,2.107 -5.319,3.423 -6.794,3.95c-1.475,0.527 -3.055,0.79 -4.74,0.79c-4.424,0 -8.111,-1.58 -11.06,-4.74c-2.318,-2.739 -3.74,-6.531 -4.266,-11.376c-0.527,-4.846 -0.527,-9.428 0,-13.747c0.526,-4.318 1.527,-10.902 3.002,-19.75c4.213,-27.598 4.318,-43.608 0.316,-48.032c-1.475,-1.054 -3.055,-1.581 -4.74,-1.581c-2.739,0.211 -5.689,1.317 -8.849,3.319c-3.16,2.001 -6.478,5.108 -9.954,9.322c-3.476,4.213 -6.478,8.11 -9.006,11.692c-2.528,3.581 -5.583,8.585 -9.164,15.01c-3.581,6.425 -6.162,11.06 -7.742,13.904c-1.58,2.844 -3.95,7.216 -7.11,13.114c-5.899,11.587 -10.112,19.171 -12.64,22.753c-2.528,3.581 -5.478,5.477 -8.848,5.688c-3.582,0.421 -6.426,-0.632 -8.533,-3.16c-1.685,-1.686 -2.738,-3.74 -3.16,-6.162c-0.421,-2.423 -0.316,-8.901 0.316,-19.435c-8.637,14.326 -16.748,21.489 -24.332,21.489c-4.424,0 -8.216,-1.686 -11.376,-5.056c-3.371,-3.792 -5.372,-9.796 -6.004,-18.013c-0.632,-8.216 -0.316,-18.223 0.948,-30.02c2.528,-30.126 1.264,-45.61 -3.792,-46.453c-4.424,-0.632 -12.008,5.372 -22.753,18.013c-6.53,8.005 -16.748,22.541 -30.652,43.608c-5.688,9.059 -9.901,15.484 -12.64,19.276c-2.739,3.793 -5.267,6.689 -7.584,8.691c-2.318,2.001 -4.74,3.107 -7.268,3.318c-3.582,0.21 -6.32,-0.948 -8.216,-3.476c-1.475,-1.475 -2.529,-3.266 -3.161,-5.373c-0.632,-2.106 -0.684,-7.9 -0.158,-17.38c0.527,-9.48 1.949,-22.752 4.267,-39.816c0.842,-4.635 1.632,-9.533 2.37,-14.695c0.737,-5.161 1.422,-9.796 2.054,-13.904c0.632,-4.108 1.264,-7.794 1.896,-11.06c0.632,-3.265 1.106,-5.846 1.422,-7.742c0.316,-1.896 0.474,-2.844 0.474,-2.844c0.632,-3.581 2.528,-5.846 5.688,-6.794c3.16,-0.948 6.056,-0.421 8.69,1.58c2.633,2.001 3.634,4.793 3.002,8.374c-6.11,34.55 -10.112,61.726 -12.008,81.529l6.32,-9.164c7.795,-12.219 14.325,-21.962 19.592,-29.23c5.267,-7.268 11.06,-14.537 17.38,-21.805c6.32,-7.268 12.272,-12.376 17.855,-15.326c5.582,-2.949 11.007,-4.003 16.274,-3.16c7.163,1.264 12.377,5.372 15.642,12.324c3.265,6.952 4.74,15.01 4.424,24.175c-0.316,9.164 -0.79,18.697 -1.422,28.598c-0.632,7.795 -1.001,13.799 -1.106,18.012c-0.105,4.214 0.158,9.164 0.79,14.852c7.584,-6.741 18.855,-29.283 33.813,-67.624c0.421,-2.107 0.842,-4.214 1.264,-6.321l1.896,-9.006l0.632,-3.634c0.842,-3.581 2.844,-5.793 6.004,-6.636c3.16,-0.843 6.056,-0.263 8.69,1.738c2.633,2.002 3.529,4.793 2.686,8.374c-1.686,8.427 -2.95,14.853 -3.792,19.277c-0.211,0 -0.316,0.21 -0.316,0.632c-3.792,20.435 -6.636,36.867 -8.532,49.296c4.213,-8.005 7.794,-14.589 10.744,-19.75c2.949,-5.161 6.794,-11.429 11.534,-18.802c4.74,-7.374 9.164,-13.167 13.272,-17.381c4.108,-4.213 8.848,-7.9 14.22,-11.06c5.372,-3.16 10.586,-4.845 15.643,-5.056c7.794,0 14.009,2.634 18.644,7.9c2.739,2.95 4.74,6.636 6.004,11.061c1.264,4.424 1.738,9.848 1.422,16.274c-0.316,6.425 -0.737,11.745 -1.264,15.958c-0.527,4.213 -1.422,10.428 -2.686,18.644c-2.107,15.168 -3.055,24.227 -2.844,27.177c6.109,-5.899 14.641,-17.275 25.596,-34.129c10.955,-16.853 18.855,-31.495 23.701,-43.924c0.842,-2.318 2.422,-3.898 4.74,-4.741Z" style="fill-rule:nonzero;"/><path d="M619.212,202.172c-1.474,3.792 -2.738,6.952 -3.792,9.48c-1.053,2.528 -2.686,6.215 -4.898,11.06c-2.212,4.845 -4.529,8.953 -6.952,12.324c-2.423,3.371 -5.214,6.794 -8.374,10.27c-3.16,3.476 -6.636,6.162 -10.428,8.058c-3.792,1.896 -7.795,2.844 -12.008,2.844c-1.896,0 -4.319,-0.316 -7.268,-0.948c-2.318,-0.632 -4.319,-1.422 -6.004,-2.37c-1.686,-0.948 -3.108,-2.212 -4.266,-3.792c-1.159,-1.58 -2.16,-3.107 -3.003,-4.582c-0.842,-1.474 -1.369,-3.423 -1.58,-5.846c-0.21,-2.423 -0.421,-4.582 -0.632,-6.478c-0.21,-1.896 -0.105,-4.371 0.316,-7.426c0.422,-3.055 0.79,-5.583 1.106,-7.584c0.316,-2.002 0.896,-4.846 1.738,-8.532c0.843,-3.687 1.528,-6.531 2.055,-8.532c0.526,-2.002 1.316,-5.004 2.37,-9.007c1.896,-7.584 3.581,-14.536 5.056,-20.856c0.632,-2.317 1.948,-4.161 3.95,-5.53c2.001,-1.369 4.266,-1.738 6.794,-1.106c2.317,0.632 4.16,1.949 5.53,3.95c1.369,2.001 1.738,4.266 1.106,6.794c-1.896,7.163 -3.687,14.22 -5.372,21.173c-7.163,27.176 -8.743,41.291 -4.74,42.344c5.688,1.475 11.323,-1.949 16.906,-10.27c5.583,-8.321 10.797,-18.908 15.642,-31.758c1.264,-3.371 3.582,-5.215 6.952,-5.531c3.371,-0.316 6.162,0.738 8.374,3.16c2.212,2.423 2.686,5.32 1.422,8.691Zm-42.344,-46.769c-3.582,0 -6.215,-1.738 -7.9,-5.214c-1.686,-3.476 -1.159,-6.794 1.58,-9.954l1.896,-1.896c1.685,-1.896 3.792,-2.844 6.32,-2.844c2.528,0 4.635,0.842 6.32,2.528c3.16,3.581 3.529,7.373 1.106,11.376c-2.423,4.003 -5.53,6.004 -9.322,6.004Z" style="fill-rule:nonzero;"/><path d="M691.577,190.163c2.318,-1.053 4.635,-1.158 6.953,-0.316c2.317,0.843 4.002,2.37 5.056,4.583c1.053,2.212 1.158,4.476 0.316,6.794c-3.582,10.533 -8.375,20.329 -14.379,29.388c-6.004,9.059 -12.218,16.485 -18.644,22.278c-6.425,5.794 -12.956,10.797 -19.592,15.011c-6.636,4.213 -12.588,7.215 -17.854,9.006c-5.267,1.79 -9.691,2.686 -13.273,2.686l-0.948,0c-5.688,-0.422 -9.058,-3.16 -10.112,-8.216c-0.842,-3.792 0.211,-7.058 3.16,-9.797c2.95,-2.738 6.426,-5.161 10.428,-7.268c4.003,-2.106 6.426,-3.897 7.269,-5.372c0.421,-1.685 -2.318,-6.952 -8.217,-15.8c-3.792,-5.267 -6.688,-9.585 -8.69,-12.956c-2.001,-3.371 -4.16,-8.216 -6.478,-14.536c-2.317,-6.32 -3.476,-12.535 -3.476,-18.645c0,-17.696 5.478,-29.388 16.432,-35.076c7.585,-4.213 14.958,-3.792 22.121,1.264c9.059,6.109 12.851,16.432 11.376,30.968c-0.632,3.582 -2.475,5.952 -5.53,7.11c-3.055,1.159 -5.952,0.843 -8.69,-0.948c-2.739,-1.79 -3.898,-4.582 -3.476,-8.374c0.842,-7.373 -0.316,-12.113 -3.476,-14.22c-1.475,-0.843 -2.844,-0.948 -4.108,-0.316c-4.635,2.317 -6.953,8.848 -6.953,19.592c0,2.528 0.369,5.267 1.106,8.217c0.738,2.949 1.475,5.372 2.212,7.268c0.738,1.896 2.002,4.371 3.793,7.426c1.79,3.054 3.107,5.161 3.95,6.32c0.842,1.158 2.317,3.318 4.424,6.478c2.949,4.424 5.003,7.531 6.162,9.322c1.158,1.791 2.37,4.319 3.634,7.584c1.264,3.266 1.896,6.373 1.896,9.322c18.539,-13.483 31.6,-31.39 39.184,-53.72c0.843,-2.318 2.318,-4.003 4.424,-5.057Z" style="fill-rule:nonzero;"/><path d="M230.527,310.153c1.685,-1.685 3.739,-2.528 6.162,-2.528c2.423,0 4.582,0.843 6.478,2.528c11.798,12.009 20.646,26.545 26.545,43.609c5.898,17.064 8.69,35.024 8.374,53.879c-0.316,18.855 -2.581,37.71 -6.794,56.565c-4.214,18.854 -10.218,37.551 -18.013,56.09c-13.904,33.286 -30.757,61.305 -50.56,84.057c-21.278,24.438 -41.397,36.657 -60.357,36.657c-10.955,0 -20.119,-4.424 -27.493,-13.272c-17.696,-21.067 -24.227,-67.836 -19.592,-140.306c1.053,-18.75 2.633,-36.657 4.74,-53.721c-37.71,67.625 -64.886,118.923 -81.529,153.894c-1.685,3.792 -4.635,5.372 -8.848,4.74c-4.213,-0.632 -6.741,-2.949 -7.584,-6.952c-3.792,-20.224 -2.265,-54.616 4.582,-103.175c6.847,-48.56 15.326,-95.276 25.438,-140.148c0.632,-2.318 2.002,-4.161 4.108,-5.53c2.107,-1.37 4.319,-1.738 6.636,-1.106c2.318,0.421 4.161,1.685 5.53,3.792c1.37,2.106 1.738,4.319 1.106,6.636c-7.373,32.443 -14.22,68.046 -20.54,106.809c-6.32,38.764 -9.901,70.891 -10.744,96.382c6.741,-13.272 14.431,-28.019 23.068,-44.241c8.638,-16.221 16.696,-31.074 24.175,-44.557c7.478,-13.482 14.536,-26.175 21.172,-38.078c6.636,-11.903 11.797,-21.067 15.484,-27.492c3.687,-6.426 5.636,-9.955 5.846,-10.587c2.528,-4.213 6.11,-5.477 10.744,-3.792c4.635,1.686 6.531,4.951 5.689,9.797c-2.107,11.797 -4.056,25.069 -5.847,39.816c-1.79,14.747 -3.423,31.969 -4.898,51.667c-1.474,19.697 -2.159,38.026 -2.054,54.985c0.106,16.958 1.58,32.864 4.424,47.716c2.844,14.852 7.005,25.649 12.483,32.391c4.002,4.424 8.637,6.636 13.904,6.636c9.059,0 19.329,-4.793 30.81,-14.378c11.482,-9.586 22.858,-22.805 34.129,-39.659c11.27,-16.854 21.119,-35.392 29.546,-55.617c6.952,-16.432 12.377,-33.18 16.274,-50.244c3.898,-17.065 6.268,-34.234 7.11,-51.509c0.843,-17.275 -1.211,-33.76 -6.162,-49.455c-4.95,-15.695 -12.798,-28.914 -23.542,-39.658c-1.896,-1.686 -2.844,-3.74 -2.844,-6.163c0,-2.422 0.948,-4.582 2.844,-6.478Z" style="fill-rule:nonzero;"/><path d="M286.144,588.237c-3.16,-1.896 -5.741,-4.213 -7.742,-6.952c-2.002,-2.739 -3.424,-5.477 -4.266,-8.216c-0.843,-2.739 -1.212,-6.267 -1.106,-10.586c0.105,-4.319 0.316,-8.111 0.632,-11.376c0.316,-3.266 0.895,-7.637 1.738,-13.114c3.792,-18.539 8.9,-33.444 15.326,-44.715c6.425,-11.271 13.641,-17.96 21.646,-20.066c6.742,-1.896 12.324,-0.211 16.748,5.056c4.846,5.477 6.004,13.167 3.476,23.068c-1.896,8.216 -6.267,16.432 -13.114,24.648c-6.847,8.217 -15.958,14.958 -27.334,20.225c-2.528,14.957 -1.264,24.016 3.792,27.176c2.107,1.475 5.267,1.791 9.48,0.948c4.213,-0.843 8.321,-2.633 12.324,-5.372c12.43,-8.637 23.49,-25.175 33.181,-49.613c0.842,-1.896 2.106,-3.318 3.792,-4.266c1.685,-0.948 3.37,-1.264 5.056,-0.948c1.685,0.316 3.318,0.948 4.898,1.896c1.58,0.948 2.581,2.318 3.002,4.108c0.421,1.791 0.316,3.74 -0.316,5.846c-11.166,27.809 -24.332,46.98 -39.501,57.513c-8.848,6.11 -17.696,9.164 -26.544,9.164c-5.477,0 -10.533,-1.474 -15.168,-4.424Zm29.704,-97.645c-1.475,0.632 -3.055,2.001 -4.74,4.108c-1.685,2.107 -3.792,5.53 -6.32,10.27c-2.528,4.74 -4.74,10.376 -6.636,16.906c8.637,-6.952 14.22,-14.536 16.748,-22.752c1.054,-3.16 1.37,-6.004 0.948,-8.532Z" style="fill-rule:nonzero;"/><path d="M439.722,514.608c2.317,-1.053 4.635,-1.158 6.952,-0.316c2.317,0.843 4.003,2.37 5.056,4.582c1.053,2.212 1.159,4.477 0.316,6.794c-3.581,10.534 -8.374,20.33 -14.378,29.389c-6.004,9.059 -12.219,16.485 -18.644,22.278c-6.426,5.794 -12.957,10.797 -19.593,15.01c-6.636,4.214 -12.587,7.216 -17.854,9.006c-5.267,1.791 -9.691,2.686 -13.272,2.686l-0.948,0c-5.688,-0.421 -9.059,-3.16 -10.112,-8.216c-0.843,-3.792 0.21,-7.057 3.16,-9.796c2.949,-2.738 6.425,-5.161 10.428,-7.268c4.003,-2.107 6.425,-3.897 7.268,-5.372c0.421,-1.685 -2.317,-6.952 -8.216,-15.8c-3.792,-5.267 -6.689,-9.586 -8.69,-12.956c-2.002,-3.371 -4.161,-8.216 -6.478,-14.537c-2.318,-6.32 -3.476,-12.534 -3.476,-18.644c0,-17.696 5.477,-29.388 16.432,-35.076c7.584,-4.214 14.957,-3.792 22.12,1.264c9.059,6.109 12.851,16.432 11.376,30.968c-0.632,3.582 -2.475,5.952 -5.53,7.11c-3.054,1.159 -5.951,0.843 -8.69,-0.948c-2.739,-1.79 -3.897,-4.582 -3.476,-8.374c0.843,-7.373 -0.316,-12.113 -3.476,-14.22c-1.475,-0.843 -2.844,-0.948 -4.108,-0.316c-4.635,2.317 -6.952,8.848 -6.952,19.592c0,2.528 0.369,5.267 1.106,8.216c0.737,2.95 1.475,5.372 2.212,7.268c0.737,1.896 2.001,4.372 3.792,7.427c1.791,3.054 3.107,5.161 3.95,6.32c0.843,1.158 2.317,3.318 4.424,6.478c2.95,4.424 5.004,7.531 6.162,9.322c1.159,1.791 2.37,4.319 3.634,7.584c1.264,3.265 1.896,6.373 1.896,9.322c18.539,-13.483 31.601,-31.39 39.185,-53.721c0.843,-2.317 2.317,-4.002 4.424,-5.056Z" style="fill-rule:nonzero;"/><path d="M512.403,433.711c3.371,-1.685 6.373,-1.475 9.006,0.632c2.633,2.107 3.845,4.846 3.634,8.216c-0.211,3.371 -1.896,5.794 -5.056,7.268c-11.165,5.056 -27.598,7.69 -49.297,7.9c-4.424,14.326 -8.637,29.81 -12.64,46.453c-3.581,15.8 -5.846,29.072 -6.794,39.817c-0.948,10.744 -1.159,17.433 -0.632,20.066c0.527,2.633 1.106,4.371 1.738,5.214c1.475,0.632 2.739,0.737 3.792,0.316c0.843,-0.211 1.843,-0.685 3.002,-1.422c1.159,-0.737 2.792,-2.265 4.898,-4.582c2.107,-2.317 4.266,-5.161 6.478,-8.532c2.212,-3.371 4.898,-8.164 8.058,-14.378c3.16,-6.215 6.321,-13.325 9.481,-21.331c0.842,-1.896 2.106,-3.318 3.792,-4.266c1.685,-0.948 3.37,-1.264 5.056,-0.948c1.685,0.316 3.265,0.948 4.74,1.896c1.474,0.948 2.475,2.318 3.002,4.108c0.526,1.791 0.474,3.74 -0.158,5.846c-14.115,35.604 -28.441,55.828 -42.977,60.673c-2.106,0.632 -4.424,0.948 -6.952,0.948c-4.213,0 -8.216,-1.158 -12.008,-3.476c-3.371,-2.106 -5.899,-5.214 -7.584,-9.322c-1.686,-4.108 -2.318,-12.166 -1.896,-24.174c0.421,-12.008 2.739,-27.598 6.952,-46.769c3.16,-14.325 7.163,-29.81 12.008,-46.453c-11.587,-0.632 -21.804,-2.106 -30.652,-4.424c-2.318,-0.632 -4.108,-2.001 -5.372,-4.108c-1.264,-2.106 -1.58,-4.318 -0.948,-6.636c0.632,-2.317 2.001,-4.108 4.108,-5.372c2.106,-1.264 4.424,-1.58 6.952,-0.948c9.059,2.318 19.487,3.687 31.284,4.108c5.478,-17.485 10.744,-32.548 15.8,-45.188c1.264,-3.371 3.582,-5.215 6.952,-5.531c3.371,-0.316 6.163,0.738 8.375,3.161c2.212,2.422 2.58,5.319 1.106,8.69c-5.056,13.693 -9.586,26.544 -13.589,38.552c17.065,-0.842 29.178,-2.844 36.341,-6.004Z" style="fill-rule:nonzero;"/><path d="M494.391,588.237c-3.16,-1.896 -5.741,-4.213 -7.742,-6.952c-2.002,-2.739 -3.424,-5.477 -4.267,-8.216c-0.842,-2.739 -1.211,-6.267 -1.106,-10.586c0.106,-4.319 0.316,-8.111 0.632,-11.376c0.316,-3.266 0.896,-7.637 1.739,-13.114c3.792,-18.539 8.9,-33.444 15.326,-44.715c6.425,-11.271 13.641,-17.96 21.646,-20.066c6.741,-1.896 12.324,-0.211 16.748,5.056c4.846,5.477 6.004,13.167 3.476,23.068c-1.896,8.216 -6.267,16.432 -13.114,24.648c-6.847,8.217 -15.958,14.958 -27.334,20.225c-2.528,14.957 -1.264,24.016 3.792,27.176c2.106,1.475 5.267,1.791 9.48,0.948c4.213,-0.843 8.321,-2.633 12.324,-5.372c12.43,-8.637 23.49,-25.175 33.181,-49.613c0.842,-1.896 2.106,-3.318 3.792,-4.266c1.685,-0.948 3.37,-1.264 5.056,-0.948c1.685,0.316 3.318,0.948 4.898,1.896c1.58,0.948 2.58,2.318 3.002,4.108c0.421,1.791 0.316,3.74 -0.316,5.846c-11.166,27.809 -24.333,46.98 -39.501,57.513c-8.848,6.11 -17.696,9.164 -26.544,9.164c-5.478,0 -10.534,-1.474 -15.168,-4.424Zm29.704,-97.645c-1.475,0.632 -3.055,2.001 -4.74,4.108c-1.685,2.107 -3.792,5.53 -6.32,10.27c-2.528,4.74 -4.74,10.376 -6.636,16.906c8.637,-6.952 14.22,-14.536 16.748,-22.752c1.053,-3.16 1.369,-6.004 0.948,-8.532Z" style="fill-rule:nonzero;"/><path d="M626.481,519.348c1.264,-3.37 3.581,-5.161 6.952,-5.372c3.37,-0.21 6.162,0.896 8.374,3.318c2.212,2.423 2.58,5.32 1.106,8.69c-1.264,3.371 -3.213,8.533 -5.846,15.485c-2.634,6.952 -4.793,12.798 -6.478,17.538c-1.686,4.74 -4.003,10.165 -6.953,16.274c-2.949,6.109 -5.74,11.008 -8.374,14.694c-2.633,3.687 -5.74,6.847 -9.322,9.48c-3.581,2.634 -7.268,3.95 -11.06,3.95c-6.952,0 -12.324,-2.844 -16.116,-8.532c-1.896,-2.949 -3.002,-6.794 -3.318,-11.534c-0.316,-4.74 -0.211,-8.69 0.316,-11.85c0.526,-3.16 1.527,-8.216 3.002,-15.168c1.264,-6.11 2.212,-11.06 2.844,-14.852c0.632,-3.792 0.737,-7.795 0.316,-12.009c-0.421,-4.213 -1.685,-7.373 -3.792,-9.48c0,0.422 -0.211,1.054 -0.632,1.896c-0.422,0.843 -0.79,1.58 -1.106,2.212c-0.316,0.632 -0.58,1.264 -0.79,1.896c-0.843,2.318 -2.318,3.95 -4.424,4.898c-2.107,0.948 -4.319,1.001 -6.636,0.158c-2.318,-1.053 -3.95,-2.686 -4.898,-4.898c-0.948,-2.212 -1.001,-4.582 -0.158,-7.11c1.685,-4.213 4.108,-10.639 7.268,-19.276c-1.264,-3.371 -2.107,-6.741 -2.528,-10.112c-2.318,-11.798 -1.264,-20.33 3.16,-25.596c1.896,-2.318 4.266,-3.687 7.11,-4.109c2.844,-0.421 5.53,0.211 8.058,1.897c5.056,3.16 7.742,7.794 8.058,13.904c0.316,6.109 -1.211,14.009 -4.582,23.7c1.896,3.792 4.003,6.847 6.32,9.164c3.792,3.792 6.162,8.901 7.11,15.326c0.948,6.426 1.106,12.061 0.474,16.907c-0.632,4.845 -1.791,11.165 -3.476,18.96c-0.843,3.371 -1.422,5.899 -1.738,7.584c-0.316,1.685 -0.737,4.266 -1.264,7.742c-0.527,3.476 -0.685,6.057 -0.474,7.742c0.211,1.686 0.843,2.528 1.896,2.528c5.899,-1.264 14.852,-19.065 26.86,-53.405c0.422,-1.053 0.948,-2.528 1.58,-4.424c0.632,-1.896 1.212,-3.476 1.738,-4.74c0.527,-1.264 1.001,-2.422 1.423,-3.476Z" style="fill-rule:nonzero;"/><path d="M676.725,510.184c-4.635,0 -9.427,2.476 -14.378,7.426c-4.951,4.951 -9.375,11.166 -13.272,18.645c-3.898,7.478 -7.268,14.904 -10.112,22.278c-2.844,7.373 -5.109,14.22 -6.794,20.54c-0.843,3.16 -2.792,5.162 -5.846,6.004c-3.055,0.843 -5.847,0.316 -8.375,-1.58c-2.528,-1.896 -3.581,-4.529 -3.16,-7.9c3.16,-23.384 9.112,-48.612 17.855,-75.683c8.742,-27.071 17.643,-49.981 26.702,-68.731c8.216,-17.907 16.854,-33.496 25.912,-46.769c9.48,-13.482 17.065,-20.751 22.753,-21.804c5.266,-0.843 9.164,0.948 11.692,5.372c7.584,13.062 1.79,37.289 -17.38,72.681c-11.587,21.489 -24.438,39.817 -38.553,54.985c12.219,-5.477 22.278,-4.108 30.178,4.108c7.901,8.216 11.851,20.33 11.851,36.341c6.952,-6.11 11.797,-11.903 14.536,-17.381c1.053,-2.106 2.739,-3.528 5.056,-4.266c2.317,-0.737 4.582,-0.579 6.794,0.474c2.212,1.054 3.687,2.739 4.424,5.056c0.737,2.318 0.579,4.53 -0.474,6.636c-5.477,10.955 -16.327,21.91 -32.548,32.865c-2.528,13.061 -7.321,24.385 -14.379,33.97c-7.057,9.586 -15.853,15.537 -26.386,17.855c-3.792,0.842 -7.057,1.264 -9.796,1.264c-8.006,0 -13.483,-3.055 -16.432,-9.165c-2.318,-4.845 -1.738,-10.428 1.738,-16.748c3.476,-6.32 9.216,-12.429 17.222,-18.328c2.739,-2.107 5.899,-4.266 9.48,-6.478c3.581,-2.212 7.584,-4.582 12.008,-7.11c4.424,-2.528 7.9,-4.53 10.428,-6.004c0.843,-8.638 0.369,-17.17 -1.422,-25.597c-1.79,-8.426 -4.792,-12.745 -9.006,-12.956l-0.316,0Zm-18.012,83.741c8.848,-1.896 16.011,-8.637 21.488,-20.224c-5.266,3.16 -10.007,6.215 -14.22,9.164c-3.16,2.318 -5.688,4.477 -7.584,6.478c-1.896,2.002 -3.371,3.845 -4.424,5.53c0.211,0 0.632,-0.052 1.264,-0.158c0.632,-0.105 1.211,-0.21 1.738,-0.316c0.527,-0.105 1.106,-0.263 1.738,-0.474Zm45.505,-205.403c-14.115,18.961 -28.335,46.348 -42.661,82.162c9.059,-11.587 17.38,-24.333 24.964,-38.237c9.48,-17.275 15.379,-31.916 17.697,-43.925Z" style="fill-rule:nonzero;"/><path d="M726.338,588.237c-3.16,-1.896 -5.741,-4.213 -7.742,-6.952c-2.002,-2.739 -3.424,-5.477 -4.266,-8.216c-0.843,-2.739 -1.212,-6.267 -1.106,-10.586c0.105,-4.319 0.316,-8.111 0.632,-11.376c0.316,-3.266 0.895,-7.637 1.738,-13.114c3.792,-18.539 8.901,-33.444 15.326,-44.715c6.425,-11.271 13.641,-17.96 21.646,-20.066c6.742,-1.896 12.324,-0.211 16.748,5.056c4.846,5.477 6.005,13.167 3.477,23.068c-1.896,8.216 -6.268,16.432 -13.115,24.648c-6.846,8.217 -15.958,14.958 -27.334,20.225c-2.528,14.957 -1.264,24.016 3.792,27.176c2.107,1.475 5.267,1.791 9.48,0.948c4.214,-0.843 8.322,-2.633 12.324,-5.372c12.43,-8.637 23.49,-25.175 33.181,-49.613c0.842,-1.896 2.106,-3.318 3.792,-4.266c1.685,-0.948 3.371,-1.264 5.056,-0.948c1.685,0.316 3.318,0.948 4.898,1.896c1.58,0.948 2.581,2.318 3.002,4.108c0.421,1.791 0.316,3.74 -0.316,5.846c-11.165,27.809 -24.332,46.98 -39.501,57.513c-8.848,6.11 -17.696,9.164 -26.544,9.164c-5.477,0 -10.533,-1.474 -15.168,-4.424Zm29.704,-97.645c-1.474,0.632 -3.054,2.001 -4.74,4.108c-1.685,2.107 -3.792,5.53 -6.32,10.27c-2.528,4.74 -4.74,10.376 -6.636,16.906c8.638,-6.952 14.22,-14.536 16.748,-22.752c1.054,-3.16 1.37,-6.004 0.948,-8.532Z" style="fill-rule:nonzero;"/><path d="M858.428,519.348c1.264,-3.37 3.581,-5.161 6.952,-5.372c3.371,-0.21 6.162,0.896 8.374,3.318c2.212,2.423 2.581,5.32 1.106,8.69c-1.264,3.371 -3.213,8.533 -5.846,15.485c-2.633,6.952 -4.793,12.798 -6.478,17.538c-1.686,4.74 -4.003,10.165 -6.952,16.274c-2.95,6.109 -5.741,11.008 -8.374,14.694c-2.634,3.687 -5.741,6.847 -9.323,9.48c-3.581,2.634 -7.268,3.95 -11.06,3.95c-6.952,0 -12.324,-2.844 -16.116,-8.532c-1.896,-2.949 -3.002,-6.794 -3.318,-11.534c-0.316,-4.74 -0.211,-8.69 0.316,-11.85c0.527,-3.16 1.527,-8.216 3.002,-15.168c1.264,-6.11 2.212,-11.06 2.844,-14.852c0.632,-3.792 0.737,-7.795 0.316,-12.009c-0.421,-4.213 -1.685,-7.373 -3.792,-9.48c0,0.422 -0.211,1.054 -0.632,1.896c-0.421,0.843 -0.79,1.58 -1.106,2.212c-0.316,0.632 -0.579,1.264 -0.79,1.896c-0.843,2.318 -2.317,3.95 -4.424,4.898c-2.107,0.948 -4.319,1.001 -6.636,0.158c-2.317,-1.053 -3.95,-2.686 -4.898,-4.898c-0.948,-2.212 -1.001,-4.582 -0.158,-7.11c1.685,-4.213 4.108,-10.639 7.268,-19.276c-1.264,-3.371 -2.107,-6.741 -2.528,-10.112c-2.318,-11.798 -1.264,-20.33 3.16,-25.596c1.896,-2.318 4.266,-3.687 7.11,-4.109c2.844,-0.421 5.53,0.211 8.058,1.897c5.056,3.16 7.742,7.794 8.058,13.904c0.316,6.109 -1.211,14.009 -4.582,23.7c1.896,3.792 4.003,6.847 6.32,9.164c3.792,3.792 6.162,8.901 7.11,15.326c0.948,6.426 1.106,12.061 0.474,16.907c-0.632,4.845 -1.79,11.165 -3.476,18.96c-0.842,3.371 -1.422,5.899 -1.738,7.584c-0.316,1.685 -0.737,4.266 -1.264,7.742c-0.526,3.476 -0.684,6.057 -0.474,7.742c0.211,1.686 0.843,2.528 1.896,2.528c5.899,-1.264 14.852,-19.065 26.861,-53.405c0.421,-1.053 0.948,-2.528 1.58,-4.424c0.632,-1.896 1.211,-3.476 1.738,-4.74c0.526,-1.264 1,-2.422 1.422,-3.476Z" style="fill-rule:nonzero;"/><path d="M966.817,525.984c-5.688,14.326 -13.746,27.703 -24.174,40.133c-10.428,12.429 -23.016,24.859 -37.763,37.288c-14.536,49.086 -30.863,81.214 -48.98,96.382c-10.112,8.637 -18.855,12.956 -26.229,12.956c-4.213,0 -8.005,-1.685 -11.376,-5.056c-2.528,-2.739 -4.055,-6.584 -4.582,-11.534c-0.527,-4.951 -0.158,-10.428 1.106,-16.432c1.264,-6.005 3.792,-12.535 7.584,-19.593c3.792,-7.057 8.638,-13.851 14.536,-20.382c2.95,-3.371 6.847,-7.321 11.693,-11.85c4.845,-4.53 9.006,-8.269 12.482,-11.218c3.476,-2.95 8.479,-7.11 15.01,-12.483c6.531,-5.372 10.955,-9.006 13.272,-10.902c1.686,-4.424 3.792,-11.797 6.32,-22.12c-5.477,4.424 -11.271,7.426 -17.38,9.006c-6.109,1.58 -11.903,1.211 -17.38,-1.106c-10.955,-5.267 -14.326,-16.853 -10.112,-34.76c1.264,-4.635 2.686,-9.428 4.266,-14.379c1.58,-4.95 4.16,-11.639 7.742,-20.066c3.581,-8.427 8.163,-15.853 13.746,-22.278c5.583,-6.426 11.639,-10.797 18.17,-13.114c9.691,-3.371 19.066,-1.37 28.125,6.004c1.896,1.474 3.002,3.423 3.318,5.846c0.316,2.423 -0.369,4.582 -2.054,6.478c-1.475,2.107 -3.424,3.265 -5.846,3.476c-2.423,0.211 -4.583,-0.421 -6.479,-1.896c-4.002,-3.16 -7.794,-4.213 -11.376,-3.16c-5.898,2.107 -12.008,8.848 -18.328,20.224c-5.899,10.955 -10.428,23.385 -13.588,37.289c-2.107,8.216 -2.001,12.956 0.316,14.22c2.107,1.053 5.319,0.527 9.638,-1.58c4.319,-2.107 8.058,-5.162 11.218,-9.164c2.528,-3.16 4.898,-6.742 7.11,-10.744c2.212,-4.003 4.003,-7.742 5.372,-11.219c1.37,-3.476 2.581,-6.794 3.634,-9.954c1.054,-3.16 1.791,-5.582 2.212,-7.268c0.422,-1.685 0.632,-2.633 0.632,-2.844c0.632,-2.528 1.949,-4.319 3.95,-5.372c2.002,-1.053 4.109,-1.422 6.321,-1.106c2.212,0.316 4.055,1.422 5.53,3.318c1.474,1.896 2.001,4.108 1.58,6.636c-2.528,16.432 -6.531,35.603 -12.009,57.513c17.697,-17.486 29.916,-34.76 36.657,-51.825c0.632,-1.896 1.791,-3.318 3.476,-4.266c1.685,-0.948 3.371,-1.264 5.056,-0.948c1.685,0.316 3.318,0.948 4.898,1.896c1.58,0.948 2.634,2.318 3.16,4.108c0.527,1.791 0.369,3.74 -0.474,5.846Zm-121.661,160.215c12.008,-10.323 23.489,-30.758 34.444,-61.305c-12.851,10.533 -22.542,19.487 -29.072,26.86c-6.952,7.795 -12.061,15.958 -15.327,24.49c-3.265,8.533 -4.476,14.695 -3.634,18.487c2.95,-0.843 7.479,-3.687 13.589,-8.532Z" style="fill-rule:nonzero;"/></g></svg>