<?xml version="1.0" encoding="UTF-8" standalone="no"?><!DOCTYPE svg PUBLIC "-//W3C//DTD SVG 1.1//EN" "http://www.w3.org/Graphics/SVG/1.1/DTD/svg11.dtd"><svg width="100%" height="100%" viewBox="0 0 188 97" version="1.1" xmlns="http://www.w3.org/2000/svg" xmlns:xlink="http://www.w3.org/1999/xlink" xml:space="preserve"  style="fill-rule:evenodd;clip-rule:evenodd;stroke-linejoin:round;stroke-miterlimit:2;"><g><rect x="0" y="2.94" width="23.874" height="91.908" style="fill:#fff;"/><path d="M92.822,25.143c-4.28,1.677 -4.942,-0.55 -13.67,-0.55c-13.739,0 -23.876,9.418 -23.876,24.469c0,15.045 12.758,24.2 24.207,24.2c11.442,0 17.984,-7.523 20.929,-11.775c2.945,-4.252 34.016,-61.487 34.016,-61.487l52.659,93.703l-20.279,0c-8.124,0 -12.101,-9.973 -12.101,-9.973l-25.838,0l9.156,-16.352l6.871,0l-10.142,-18.971c0,0 -9.155,16.351 -16.353,27.8c-7.197,11.444 -23.879,19.853 -38.43,19.853c-14.552,0 -47.262,-10.366 -47.262,-46.672c0,-36.306 31.071,-48.081 46.443,-48.081c7.281,0 13.373,1.531 17.048,2.862c6.265,2.271 6.36,5.48 4.98,8.15c-1.38,2.671 -6.749,12.196 -8.358,12.824Z" style="fill:#fff;"/></g></svg>