<?xml version="1.0" encoding="UTF-8" standalone="no"?><!DOCTYPE svg PUBLIC "-//W3C//DTD SVG 1.1//EN" "http://www.w3.org/Graphics/SVG/1.1/DTD/svg11.dtd"><svg width="100%" height="100%" viewBox="0 0 165 152" version="1.1" xmlns="http://www.w3.org/2000/svg" xmlns:xlink="http://www.w3.org/1999/xlink" xml:space="preserve"  style="fill-rule:evenodd;clip-rule:evenodd;stroke-linejoin:round;stroke-miterlimit:2;"><g><path d="M72.415,43.591c2.854,-1.212 5.993,-2.283 9.061,-2.782l-0.143,-40.809c-10.487,0.142 -20.333,3.139 -28.752,8.418l18.265,35.958c0.499,-0.285 0.998,-0.57 1.569,-0.785Z" style="fill:#fff;"/><path d="M66.636,46.588l-23.33,-30.964c-7.491,7.206 -13.056,16.41 -15.481,26.755l31.035,11.914c1.569,-2.996 4.209,-5.494 7.776,-7.705Z" style="fill:#fff;"/><path d="M106.018,47.087c7.064,14.554 -9.203,14.198 -2.497,25.47c3.14,5.28 12.985,12.057 22.545,17.979c7.634,-9.56 12.057,-21.546 12.057,-34.531c0,-11.415 -3.424,-22.045 -9.274,-30.821l-24.4,19.692c0.642,0.642 1.141,1.426 1.569,2.211Z" style="fill:#fff;"/><path d="M100.882,42.093l20.19,-26.255c-7.348,-7.206 -16.766,-12.414 -27.254,-14.697l-7.776,38.883c5.636,-0.499 11.058,0 14.84,2.069Z" style="fill:#fff;"/><path d="M92.606,88.182c-11.273,-10.274 -25.185,-2.925 -32.177,-16.695c-2.568,-4.851 -3.353,-9.061 -2.854,-12.699l-31.462,-3.924l0,1.141c0,30.821 25.041,55.934 56.005,55.934c8.49,0 16.695,-1.855 23.9,-5.422c-3.709,-6.564 -8.418,-13.912 -13.412,-18.335Zm-14.84,18.478c-3.425,0 -5.993,-2.711 -5.993,-5.993c0,-3.425 2.568,-6.064 5.993,-6.064c3.425,0 6.064,2.639 6.064,6.064c0,3.282 -2.639,5.993 -6.064,5.993Z" style="fill:#fff;"/><path d="M25.684,125.423c-5.136,-2.211 -8.275,-3.139 -11.272,-3.139c-3.139,0 -5.28,1.213 -5.28,2.926c0,5.35 18.122,3.781 18.122,16.123c0,6.707 -5.779,10.631 -13.627,10.631c-6.207,0 -9.346,-1.57 -12.842,-3.425l0,-7.634c5.066,3.425 8.276,4.638 12.2,4.638c3.424,0 5.208,-1.213 5.208,-3.282c0,-5.779 -18.193,-3.71 -18.193,-16.267c0,-6.064 5.351,-10.131 13.627,-10.131c3.924,0 7.634,0.785 12.057,2.783l0,6.777Z" style="fill:#fff;"/><path d="M49.87,132.772l15.696,18.621l-11.13,0l-14.197,-16.409l0,16.409l-8.776,0l0,-35.03l8.776,0l0,15.91l0.142,0l11.273,-15.91l9.703,0l-11.487,16.409Z" style="fill:#fff;"/><path d="M131.702,151.393l-7.348,0l-15.767,-22.402l0,22.402l-8.918,0l0,-35.03l8.133,0l15.125,21.403l0,-21.403l8.775,0l0,35.03Z" style="fill:#fff;"/><path d="M164.378,151.393l-26.897,0l0,-35.03l26.54,0l0,6.421l-17.622,0l0,7.348l16.838,0l0,6.493l-16.838,0l0,8.347l17.979,0l0,6.421Z" style="fill:#fff;"/><path d="M2.997,104.591c1.427,0 2.212,1.141 2.212,2.354c0,0.928 -0.357,1.57 -1.142,1.926c0.785,0.571 0.928,1.499 1.926,3.853l-1.926,0c-0.713,-1.712 -0.927,-3.282 -1.855,-3.282l-0.499,0l0,3.282l-1.713,0l0,-8.133l2.997,0Zm-1.284,3.424l0.856,0c0.428,0 0.927,-0.285 0.927,-0.927c0,-0.642 -0.356,-0.928 -0.927,-0.928l-0.856,0l0,1.855Z" style="fill:#fff;"/><path d="M12.057,112.724l-5.136,0l0,-8.133l4.994,0l0,1.569l-3.282,0l0,1.713l3.139,0l0,1.427l-3.139,0l0,1.997l3.424,0l0,1.427Z" style="fill:#fff;"/><path d="M19.62,106.945c-0.856,-0.499 -1.641,-0.785 -2.568,-0.785c-1.855,0 -2.497,1.428 -2.497,2.64c0,1.427 0.998,2.354 2.354,2.354c0.5,0 0.642,0 1.142,-0.285l0,-0.927l-0.999,0l0,-1.57l2.711,0l0,3.425c-0.5,0.642 -1.712,1.07 -2.854,1.07c-2.354,0 -4.067,-1.713 -4.067,-4.209c0,-2.355 1.713,-4.21 4.067,-4.21c1.07,0 2.069,0.357 2.711,0.785l0,1.712Z" style="fill:#fff;"/><rect x="21.475" y="104.591" width="1.713" height="8.133" style="fill:#fff;"/><path d="M28.324,112.867c-2.497,0 -3.924,-2.14 -3.924,-4.209c0,-1.998 1.284,-4.21 3.924,-4.21c2.64,0 3.924,2.212 3.924,4.21c0,2.069 -1.427,4.209 -3.924,4.209Zm0,-6.707c-1.355,0 -2.14,1.071 -2.14,2.498c0,1.569 0.785,2.496 2.14,2.496c1.284,0 2.212,-0.927 2.212,-2.496c0,-1.427 -0.928,-2.498 -2.212,-2.498Z" style="fill:#fff;"/><path d="M40.381,112.724l-1.427,0l-3.781,-5.136l0,5.136l-1.712,0l0,-8.133l1.57,0l3.638,4.994l0,-4.994l1.712,0l0,8.133Z" style="fill:#fff;"/><path d="M98.67,151.393l-9.632,0l-2.854,-6.92l-15.98,0l-2.64,6.92l-9.489,0l14.483,-35.03l10.202,0l15.91,35.03Zm-20.904,-26.612l-5.208,13.627l10.987,0l-5.779,-13.627Z" style="fill:#fff;"/></g></svg>