<svg xmlns="http://www.w3.org/2000/svg" width="200" height="68.774" viewBox="0 0 200 68.774"><path fill-rule="evenodd" clip-rule="evenodd" fill="#010101" d="M195.83 44.823c.517-.931 1.276-3.374-.167-3.627-.308-.054-.748.108-1.012.256-1.181.662-1.604 2.352-2.142 3.646-.252-.003-1.886-.275-2.188.051-.391 1.113 1.642.754 1.985.93-.173.756-.254 1.767-.242 2.711-.584.705-1.537 1.484-2.674 2.358-1.238.953-4.157 3.165-4.235.158-.021-.854.339-2.136.498-2.958 1.314-.153 2.901-.546 2.971-1.749.051-.845-.737-1.474-1.462-1.595-1.468-.249-2.021 1.419-2.441 2.481-.962-.116-2.102-.434-2.821-.094-.304.142-.756.743-.949 1.044-.984 1.525-1.615 4.034-3.268 4.646-.385-.306-.367-.904-.391-1.388-.036-.764.03-1.752.158-2.631.105-.706 1.33-3.275-.038-3.098-.299.039-1.278 1.485-1.494 1.764-1.498 1.956-2.725 3.857-4.615 5.162.021-1.522.163-3.174.645-4.274.262-.599.938-1.126.889-1.639-.039-.407-.547-.673-.8-.601-.377.106-1.033 1.604-1.363 2.03a17.402 17.402 0 0 1-3.458 3.391c-.904.68-2.193 1.518-3.367.957-.501-.745-.447-1.878-.375-3.033 1.293-1.389 2.372-3.428 3.277-5.502.29-.67.85-1.514.625-2.299-.088-.306-.662-.705-.935-.733-.697-.069-1.454.844-1.689 1.169-1.314 1.822-1.815 4.667-2.216 7.027-1.228 1.456-2.207 3.155-3.334 4.711.849 1.242 1.574-.442 2.093-1.232.47-.714.765-1.515 1.158-1.702.146 1.617 1.156 2.805 2.932 2.597 2.153-.254 3.774-2.764 5.139-3.64-.276 1.387-.571 3.87 1.107 3.698.535-.057.954-.752 1.354-1.173 1.224-1.282 2.685-3.048 3.53-4.051-.176 1.815-.659 5.515 1.494 5.48.961-.016 1.685-1.325 2.306-2.285 1.098-1.69 1.456-4.39 4.264-3.448-.666 2.38-.447 5.864 2.303 5.354 2.065-.383 4.188-2.903 5.34-3.64.266 1.904 3.491 4.69 5.012 2.681 0 0 .399-.655-.126-.856-1.324 2.102-4.544-.645-4.073-2.725.119-.526.775-1.062 1.077-1.531.55-.849 1.049-1.471 1.251-1.768.725-.276 1.592-.401 2.48-.62.803-.199 1.967-.177 2.158-1.035-1.407-.068-2.827.413-4.171.625m-8.274 1.239c.104.044.104.077.065.196-.265.67-.938.925-1.624 1.173.078-.574.647-1.84 1.559-1.369m-21.162-3.978c.15.249.148.234.162.285.186.423-1.915 4.184-2.879 5.795.409-2.516 1.535-5.905 2.717-6.08m26.645 5.482c-.026-.508.159-1.049.241-1.459.057-.013.767-.095.792.015-.322.376-.745 1.024-1.033 1.444m1.608-2.532c-.35.071-.463.092-1.007.064.282-1.246 1.007-2.661 1.943-2.717-.02.936-.522 1.89-.936 2.653M77.576 57.111c-.692-.588-1.358-1.621-1.913-2.51-1.725-2.758-2.796-5.912-5.782-7.441 1.666-.209 3.543-.559 4.781-1.593.853-.719 1.51-1.906 1.51-3.045.001-.82-.344-1.614-1.199-2.168a2.629 2.629 0 0 0-1.507-.461c-1.286.003-2.549.843-3.27 1.678-1.12 1.292-1.865 2.348-2.526 3.673-1.64 3.284-2.784 7.686-3.405 11.643.212.338.548.531 1.063.53.041 0 .083 0 .125-.002.289-.333.328-.699.328-1.083 0-.176-.007-.355-.007-.537 0-.109.003-.222.014-.333.245-2.795 1.297-5.696 2.203-7.893 1.382.396 2.523.799 3.343 1.779 1.743 2.091 2.77 5.185 4.566 7.29.432.499 1.059 1.335 1.912 1.338.178 0 .361-.035.552-.115l.036-.019-.006-.034c-.085-.503-.576-.482-.818-.697m-4.634-16.205c.18-.056.605-.084.94-.059.662.442 1.146.873.989 1.985-.366 2.622-4.113 3.522-6.684 3.626 1.112-1.952 2.372-4.798 4.755-5.552m48.302 12.049c-1.467-1.299.868-4.784-1.09-5.544-.231-.145-.76-.008-.938-.206.578-.446.753-1.756-.253-1.648-.253.029-.694.681-.949.979-.862 1.013-2.356 2.388-3.115 2.737.095-1.371.04-3.024-1.247-3.237-.35-.059-1.069.147-1.681.182-1.523.081-3.014.331-4.234.158.667-2.104.82-4.72 3.405-4.91.031-.69-.269-.748-.799-.797-2.488-.231-3.1 3.772-3.751 5.826-1.109.153-4.443-.084-4.353.889.017.184.375.46.668.469.285.006.476-.295.874-.389.7-.166 2.131-.104 2.669-.049-.571 2.402-1.246 5.69-1.893 8.415-.262 1.106-1.064 3.518.577 2.97.594-3.629 1.508-7.821 2.458-11.505 1.388-.015 3.546-.266 4.773-.219-1.318 1.195-2.854 3.483-2.746 6.034.025.555.203 1.198.593 1.521 1.43 1.183 2.566-.749 3.106-1.619.507-.817.894-1.542 1.164-2.424 1.638-.561 2.508-1.883 3.788-2.799.375.378 1.06.459 1.74.546-.258 1.18-.53 3.431.157 4.677.564 1.015 2.508 1.365 1.885-.247-.352-.006-.412.433-.808.19m-10.353 1.09c-.634-2.068.453-4.038 1.323-5.258.433.587.677 1.352 1.261 1.79-.683 1.333-1.151 2.884-2.584 3.468m2.929-4.45c-.444-.353-.816-2.02.152-2.043.148.678-.021 1.436-.152 2.043m41.388 3.024c-.639-1.633.873-4.238-1.098-4.554-.545-.089-1.325.102-1.75.18-1.631.297-2.992 1.222-4.184 2.2-1.238 1.018-2.284 2.286-3.588 2.865-.365-.834-.349-2.121-.239-3.229.782-.943 1.527-1.746 2.382-3.139.417-.686 2.607-5.432.258-5.356-.534.015-1.142.688-1.49 1.17-1.213 1.687-1.75 4.604-2.085 6.92-1.253 1.009-3.405 3.941-5.543 3.636-.682-.097-.904-1.104-.922-1.982.657-1.028 3.172-1.817 2.922-3.662-.087-.658-.883-1.155-1.668-1.002-1.233.239-2.144 2.706-2.257 4.192-.749.647-1.461 1.333-2.635 1.556-1.19-.812-.186-3.384-.291-4.809a1.078 1.078 0 0 0-.196-.529c-.928-1.169-2.614.862-3.169 1.485-.713.796-1.12 1.82-1.704 2.354.473-2.942 1.011-6.169 1.427-8.944-.175-.179-.44-.271-.804-.271-.083.027-.137.086-.134.196-.701 2.77-1.012 6.065-1.564 9.207-.149.845-.719 2.774.513 2.641.476-.052.825-.966 1.088-1.441 1.002-1.805 1.79-3.438 3.4-4.378-.263 2.111-.472 5.071 1.494 5.347 1.227.172 1.729-.803 2.696-1.159.289 1.485 1.824 2.568 3.478 1.875 1.404-.589 2.751-2.144 3.788-2.798-.07 1.544.36 2.994 1.517 3.045.996.046 1.977-1.345 2.639-2.018.904-.918 1.717-1.664 2.504-2.019-.481 1.105-1.078 3.783.5 3.76.307-.003.658-.207.879-.386 1.006-.821 1.597-2.508 2.649-3.271-.162 1.684.357 3.962 1.786 2.98.031-.442-.548-.297-.599-.662m-8.097-9.914c.079-.008.119.017.135.068-.278 2.116-1.517 4.164-2.543 5.531.205-1.901 1.136-4.541 2.408-5.599m-8.449 5.019c.253.794-.919 1.642-1.362 1.963.262-.847.663-1.554 1.362-1.963m11.774 5.246c.115-1.929.865-3.783 3.191-3.725-1.095 1.21-1.869 2.74-3.191 3.725m24.453-9.222c-.604-.94-2.704-.14-1.96.901.784.697 1.729.388 1.96-.901m-58.471 1.023c.379-.545.225-.984-.08-1.515-.464-.191-1.126-.313-1.449.365-.037.866.601 1.371 1.529 1.15m-2.698-.546c.105-.462.053-.698-.185-.948-2.741-1.155-1.49 2.713.185.948m-16.674 3.936c-.523.012-1.181.521-1.553.841-1.007.869-1.913 2.418-2.717 3.202.085-1.874 1.319-3.604.787-5.261-1.354-1.165-2.799.763-3.643 1.811-.854 1.06-1.491 2.173-2.109 2.746.137-1.723 1.081-3.28.72-5.063-.35-.1-.536-.354-1.004-.339-2.433 1.938-4.196 4.539-6.044 7.057-.159-2.275.575-4.141 1.328-5.719-.082-.366-.587-.635-.934-.533-.501 1.333-1.024 2.394-1.711 3.408-.817 1.204-1.404 2.594-2.649 3.203-.751-2.568.615-4.515.598-6.58-.245-.158-.512-.291-.939-.273-.295 1.79-1.175 3.996-.862 6.051.077.507.297 1.045.727 1.325 1.743 1.129 2.559-1.806 3.517-2.538-.328 1.319.214 2.641 1.253 2.515.483-.058 1.091-1.047 1.425-1.501.941-1.281 1.673-2.304 2.583-3.335.498-.564.924-1.152 1.558-1.435-.317 1.729-.969 3.452-.723 5.526.242.225.557.377 1.004.403 1.453-2.093 2.741-4.705 4.893-5.883-.021 1.436-1.277 3.604-.922 5.129.024.104.176.377.266.466.995.997 1.725-.396 2.226-1.101.926-1.303 1.787-2.511 3.253-3.131.604 1.608-.272 5.127 1.565 5.152-.538-1.792.633-6.194-1.893-6.143"/><path fill="#818181" d="M87.711 23.507c0-.76.921-1.002 1.555-1.002.897 0 1.768.252 2.564.596l1.707-3.146c-1.583-.597-2.676-.792-4.429-.792-3.27 0-6.413 1.428-6.413 4.951 0 4.857 6.413 3.006 6.413 5.13 0 .79-.986 1.033-1.619 1.033-1.252 0-2.662-.562-3.745-1.194L81.915 32.5c1.667.902 3.499 1.421 5.446 1.421 3.364 0 6.825-1.487 6.825-5.161 0-5.041-6.475-3.461-6.475-5.253m-6.501-3.858h-5.996l-3.312 4.949V12.772h-4.858v20.632h4.858v-5.616l3.585 5.616h6.146l-5.175-7.407 4.752-6.348zM59.513 33.404h4.859V19.649h-4.859v13.755zm2.399-20.907c-1.488 0-2.702 1.244-2.702 2.732 0 1.487 1.244 2.733 2.732 2.733 1.489 0 2.733-1.246 2.733-2.733 0-1.518-1.244-2.732-2.763-2.732m133.311 8.337c-1.094-1.094-2.46-1.487-3.979-1.487-1.853 0-3.249.546-4.402 2.035V19.65h-4.862v13.755h4.862v-7.377c0-1.641.788-2.824 2.55-2.824 1.731 0 2.247 1.244 2.247 2.762v7.438h4.858V24.66c.001-1.549-.15-2.671-1.274-3.826m-22.59-1.578c-4.644 0-7.745 2.641-7.745 7.409 0 4.615 3.404 7.288 7.834 7.288 3.312 0 6.195-1.367 7.139-4.737h-4.706c-.577.971-1.277 1.305-2.37 1.305-2.033 0-2.976-1.124-2.976-3.097h10.232v-.515c.001-4.617-2.702-7.653-7.408-7.653m-2.672 5.343c.244-1.426 1.306-2.216 2.732-2.216s2.521.821 2.824 2.216h-5.556zm-11.8-3.522c-1.154-1.306-2.37-1.821-4.101-1.821-4.22 0-6.982 3.4-6.982 7.47 0 3.976 2.672 6.954 6.739 6.954 1.883 0 3.006-.548 4.344-1.823v1.307c0 1.976-1.124 3.311-3.16 3.311-1.031 0-1.941-.335-2.306-1.399h-5.468c.184 1.34.577 1.916 1.49 2.856 1.76 1.82 3.826 2.43 6.313 2.43 2.277 0 4.494-.548 6.136-2.217 1.729-1.761 1.852-3.339 1.852-5.68V19.649h-4.857v1.428zm-2.886 8.533c-1.732 0-3.159-1.398-3.159-3.129 0-1.729 1.427-3.128 3.159-3.128a3.123 3.123 0 0 1 3.126 3.128 3.123 3.123 0 0 1-3.126 3.129M104.96 19.194c-1.244 0-2.703.396-3.675 1.185a5.896 5.896 0 0 0-.607.607v-8.213h-4.859v20.632h4.859v-1.519c1.094 1.398 2.46 1.976 4.222 1.976 4.101 0 6.956-3.401 6.956-7.38 0-3.948-2.825-7.288-6.896-7.288m-1.277 10.475a3.175 3.175 0 0 1-3.157-3.157c0-1.729 1.428-3.129 3.157-3.129 1.733 0 3.132 1.4 3.132 3.129 0 1.7-1.398 3.157-3.132 3.157m36.479-8.592c-1.152-1.306-2.368-1.821-4.096-1.821-4.222 0-6.985 3.4-6.985 7.47 0 3.976 2.674 6.954 6.739 6.954 1.885 0 3.007-.548 4.342-1.823v1.307c0 1.976-1.12 3.311-3.155 3.311-1.031 0-1.943-.335-2.309-1.399h-5.466c.183 1.34.578 1.916 1.489 2.856 1.761 1.82 3.826 2.43 6.314 2.43 2.277 0 4.493-.548 6.133-2.217 1.731-1.761 1.854-3.339 1.854-5.68V19.649h-4.86v1.428zm-2.883 8.533c-1.729 0-3.158-1.398-3.158-3.129 0-1.729 1.429-3.128 3.158-3.128a3.126 3.126 0 0 1 3.129 3.128 3.126 3.126 0 0 1-3.129 3.129m-13.112-9.961l-3.584 7.045-3.674-7.045h-5.649l6.65 11.873-4.381 8.21h5.438l10.756-20.083h-5.556zm-68.92 3.333c.773-1.052 1.175-2.506 1.175-3.806 0-1.671-.587-3.372-1.763-4.579-1.391-1.454-3.092-1.826-5.042-1.826h-8.353v20.632h5.352v-7.918l5.135 7.918h6.65l-6.464-8.442c1.361-.31 2.476-.836 3.31-1.979m-7.609-.96h-1.021v-5.104h1.021c1.641 0 3.278.619 3.278 2.536 0 1.918-1.608 2.568-3.278 2.568"/><path fill="#E01E26" d="M15.656 19.071l-.371.024 14.35 14.309V12.772l-.303.405c-2.417 3.245-7.659 5.503-13.676 5.894M29.635 8.905C29.635 4.009 22.493 0 13.716 0 8.172 0 2.938 1.699.054 4.397L0 4.449v28.957l.267-.196c3.055-2.257 7.801-3.661 12.694-3.789l.163-.002V17.841c1.096.034 7.249.093 12.016-2.743 2.94-1.747 4.495-3.89 4.495-6.193M14.396 20.022v28.106l19.766 20.646V39.746L14.396 20.022z"/></svg>