<?xml version="1.0" encoding="UTF-8" standalone="no"?><!DOCTYPE svg PUBLIC "-//W3C//DTD SVG 1.1//EN" "http://www.w3.org/Graphics/SVG/1.1/DTD/svg11.dtd"><svg width="100%" height="100%" viewBox="0 0 176 91" version="1.1" xmlns="http://www.w3.org/2000/svg" xmlns:xlink="http://www.w3.org/1999/xlink" xml:space="preserve"  style="fill-rule:evenodd;clip-rule:evenodd;stroke-linejoin:round;stroke-miterlimit:2;"><g><path d="M143.346,64.081l-8.878,-0.011l-0.499,2.931l6.374,0c1.424,0 2.557,0.403 3.192,1.133c0.406,0.47 0.576,1.043 0.486,1.659c-0.025,0.171 -0.206,1.053 -0.206,1.053l-0.722,0c-5.95,0 -12.095,0.262 -13.399,6.198c-0.6,2.723 1.563,6.43 5.758,6.43c4.304,0 6.446,-2.429 6.446,-2.429l-0.44,2.349l6.045,0c0,0 2.334,-12.011 2.353,-12.118c0.272,-1.534 0.322,-3.688 -0.974,-5.235c-1.093,-1.302 -2.955,-1.96 -5.536,-1.96Zm-1.064,15.108c0,0 -2.854,1.936 -5.097,0.701c-0.954,-0.523 -1.834,-1.787 -1.432,-3.696c0.475,-2.248 2.582,-3.182 6.529,-3.182l1.149,0l-1.149,6.177Z" style="fill:#fff;"/><path d="M94.26,56.211l-1.511,7.862l-4.227,-0.003c-6.26,0.005 -10.523,4.974 -11.457,9.886c-1.245,6.566 3.283,9.758 7.182,9.758c3.322,0 5.556,-2.64 5.556,-2.64l-0.406,2.326l5.974,-0.006l5.211,-27.186l-6.322,0.003Zm-4.337,22.844c0,0 -1.24,1.008 -2.56,1.046c-2.913,0.082 -4.007,-2.899 -3.26,-7.054c0.183,-1.019 1.412,-6.078 6.001,-6.065c1.509,0.006 2.078,-0.008 2.104,-0.01l-2.285,12.083Z" style="fill:#fff;"/><path d="M164.174,64.067l-3.845,0l0.208,-0.914c0.69,-2.889 2.266,-4.353 4.687,-4.353l2.631,-0.008l0.572,-2.96l-1.551,0.005l-2.182,0.006c-2.221,0 -4.616,0.242 -7.072,1.997c-2.318,1.635 -3.059,3.491 -3.614,6.347l-3.766,19.205l6.318,-0.003l3.195,-16.369l3.875,0l0.544,-2.953Z" style="fill:#fff;"/><path d="M112.885,71.161l7.569,-7.088l-4.964,0l-8.982,8.523l3.187,-16.385l-6.299,-0.006l-5.275,27.189l6.307,0l2.043,-10.617l4.213,10.617l7.617,0l-5.416,-12.233Z" style="fill:#fff;"/><path d="M79.431,64.081l-4.094,0l-6.425,12.158l-2.363,-12.158l-7.217,0c1.37,6.2 3.683,16.425 3.683,16.425c0.916,4.443 -2.247,6.507 -5.261,6.507c-0.049,0 -0.92,0.003 -0.92,0.003l-0.721,3.459c3.849,0.011 7.7,-0.517 10.351,-4.531c1.42,-2.15 4.87,-7.593 12.825,-21.613c0.053,-0.096 0.1,-0.176 0.142,-0.25Z" style="fill:#fff;"/><path d="M131.422,64.097c-1.512,0.021 -5.048,0.069 -7.017,1.056c-3.056,1.53 -3.554,4.712 -3.741,5.912c-0.021,0.133 -2.408,12.329 -2.408,12.329l6.275,0c0,0 2.339,-12.025 2.387,-12.278c0.17,-0.926 0.427,-2.32 1.112,-3.032c0.949,-0.979 3.368,-1.04 4.144,-1.032l0.563,-2.961c-0.069,0 -1.315,0.006 -1.315,0.006Z" style="fill:#fff;"/><path d="M172.394,64.075l0.495,-2.341l-6.275,0.002l-2.808,14.474c-0.416,2.213 -0.149,3.947 0.792,5.152c1.195,1.528 3.297,1.939 4.848,2.046c1.074,0.074 3.636,-0.027 3.636,-0.027l0.597,-2.931c0,0 -0.499,-0.003 -0.589,-0.013c-1.259,-0.059 -2.665,-0.302 -3.11,-1.08c-0.424,-0.744 -0.139,-2.099 0.069,-3.089c0.054,-0.253 1.774,-9.254 1.774,-9.254l3.365,0l0.56,-2.939l-3.354,0Z" style="fill:#fff;"/><path d="M23.329,21.666c1.349,-0.362 3.669,-1.429 5.35,-1.344c1.893,0.099 2.144,1.675 4.233,1.344c2.815,-0.443 5.803,-2.547 7.625,-1.88c1.544,0.565 1.594,1.123 2.116,2.038c0.545,0.952 1.044,1.41 1.044,1.41c0,0 0.381,0.704 0.992,0c0.22,-0.138 0.208,0.208 0.496,0.339c0.291,0.131 0.418,-0.608 0.653,-0.355c0.235,0.251 0.816,1.635 1.125,2.915c0.514,2.142 -0.478,6.609 -9.611,14.519c-4.629,4.008 -14.945,10.377 -27.446,10.812c-5.255,0.181 -8.959,-2.102 -9.775,-7.844c-0.965,-6.792 3.564,-12.353 8.81,-15.921c3.283,-2.232 7.076,-4.022 8.93,-4.569c1.853,-0.549 3.427,-0.914 5.458,-1.464Z" style="fill:#fff;"/><path d="M12.596,5.294c-2.779,1.136 -5.171,3.003 -5.223,6.217c-0.004,0.362 0.209,0.965 0.34,1.042c0.131,0.078 1.117,0.966 2.454,1.046c1.251,0.072 2.106,0.731 2.874,0.645c0.767,-0.085 3.107,-0.856 6.552,-1.117c3.449,-0.262 27.711,-1.566 34.758,7.651c1.652,2.163 5.226,5.321 -0.286,13.268c-5.868,8.459 -21.3,17.94 -27.732,21.647c-1.542,0.888 -6.841,4.091 -8.474,6.42c-0.251,0.357 -0.297,0.773 0.481,0.501c0.159,0.027 0.582,-0.181 1.139,-0.014c0.56,0.171 1.317,0.014 1.683,0.302c0.365,0.285 1.189,0.603 1.756,0.68c0.567,0.077 1.811,0.312 1.977,0.52c0.168,0.208 1.019,0.387 1.813,0.147c0.792,-0.243 1.984,-0.291 2.056,-0.062c0.362,0.123 0.9,-0.085 1.145,0.28c1.024,-0.165 1.152,-0.096 2.246,-0.653c17.02,-8.643 38.855,-17.546 46.509,-36.481c2.892,-7.155 0.032,-15.379 -6.634,-19.428c-6.665,-4.048 -17.307,-9.334 -35.775,-7.547c-2.261,0.218 -5.755,0.298 -10.445,0.861c-3.152,0.379 -9.055,2.376 -13.214,4.075Z" style="fill:#fff;"/><path d="M51.351,64.07c-2.064,-0.016 -4.894,-0.048 -6.518,0.864c-1.418,0.798 -3.076,2.019 -3.328,4.398c-0.286,2.691 1.633,3.885 4.172,5.155c0.643,0.323 1.244,0.603 1.775,0.851c2.215,1.032 3.552,1.672 3.344,3.2c-0.228,1.667 -2.905,1.915 -4.483,1.915l-6.58,0l-0.554,2.944l6.823,0c3.122,0 10.867,-0.008 11.735,-6.219c0.361,-2.587 -1.255,-3.899 -4.169,-5.259c-0.678,-0.318 -1.352,-0.598 -1.945,-0.846c-2.045,-0.85 -3.523,-1.475 -3.157,-2.715c0.375,-1.288 2.326,-1.33 3.616,-1.36c0.816,-0.018 5.015,0 5.015,0l0.56,-2.923l-6.306,-0.005Z" style="fill:#fff;"/></g></svg>